HIERARCHY
ROOT SpineBase
{
  OFFSET 0.000000 0.000000 0.000000
  CHANNELS 6 Xposition Yposition Zposition Zrotation Xrotation Yrotation
  JOINT SpineMid
  {
    OFFSET 0.000000 31.662078 0.000000
    CHANNELS 3 Zrotation Xrotation Yrotation
    JOINT SpineShoulder
    {
      OFFSET 0.399316 23.543714 -0.619902
      CHANNELS 3 Zrotation Xrotation Yrotation
      JOINT Neck
      {
        OFFSET 0.254640 7.788234 -0.516750
        CHANNELS 3 Zrotation Xrotation Yrotation
        JOINT Head
        {
          OFFSET 3.774637 12.457168 5.563931
          CHANNELS 3 Zrotation Xrotation Yrotation
          End Site
          {
            OFFSET 0 0 0
          }
        }
      }
      JOINT ShoulderLeft
      {
        OFFSET -6.831898 -3.466399 -14.759744
        CHANNELS 3 Zrotation Xrotation Yrotation
        JOINT ElbowLeft
        {
          OFFSET -3.020844 -26.020140 -8.043072
          CHANNELS 3 Zrotation Xrotation Yrotation
          JOINT WristLeft
          {
            OFFSET 5.049434 -22.674365 -2.522340
            CHANNELS 3 Zrotation Xrotation Yrotation
            JOINT HandLeft
            {
              OFFSET 1.486577 -8.043340 1.999513
              CHANNELS 3 Zrotation Xrotation Yrotation
              JOINT HandTipLeft
              {
                OFFSET 0.884127 -7.404665 0.816812
                CHANNELS 3 Zrotation Xrotation Yrotation
                End Site
                {
                  OFFSET 0 0 0
                }
              }
              JOINT ThumbLeft
              {
                OFFSET 2.833719 2.564259 6.030557
                CHANNELS 3 Zrotation Xrotation Yrotation
                End Site
                {
                  OFFSET 0 0 0
                }
              }
            }
          }
        }
      }
      JOINT ShoulderRight
      {
        OFFSET 6.931418 -5.009306 14.886243
        CHANNELS 3 Zrotation Xrotation Yrotation
        JOINT ElbowRight
        {
          OFFSET 0.606311 -27.972787 4.959980
          CHANNELS 3 Zrotation Xrotation Yrotation
          JOINT WristRight
          {
            OFFSET 5.299465 -20.469698 2.490723
            CHANNELS 3 Zrotation Xrotation Yrotation
            JOINT HandRight
            {
              OFFSET 2.858805 -6.370461 0.357131
              CHANNELS 3 Zrotation Xrotation Yrotation
              JOINT HandTipRight
              {
                OFFSET 3.544022 -6.119327 -1.478032
                CHANNELS 3 Zrotation Xrotation Yrotation
                End Site
                {
                  OFFSET 0 0 0
                }
              }
              JOINT ThumbRight
              {
                OFFSET 4.491035 0.494178 -3.008122
                CHANNELS 3 Zrotation Xrotation Yrotation
                End Site
                {
                  OFFSET 0 0 0
                }
              }
            }
          }
        }
      }
    }
  }
  JOINT HipLeft
  {
    OFFSET -2.198660 1.633376 -9.738124
    CHANNELS 3 Zrotation Xrotation Yrotation
    JOINT KneeLeft
    {
      OFFSET -11.700403 -37.511926 -3.935557
      CHANNELS 3 Zrotation Xrotation Yrotation
      JOINT AnkleLeft
      {
        OFFSET -9.076643 -37.006644 4.063381
        CHANNELS 3 Zrotation Xrotation Yrotation
        JOINT FootLeft
        {
          OFFSET 4.374548 -7.601415 -3.730202
          CHANNELS 3 Zrotation Xrotation Yrotation
          End Site
          {
            OFFSET 0 0 0
          }
        }
      }
    }
  }
  JOINT HipRight
  {
    OFFSET 4.388841 0.313712 2.951772
    CHANNELS 3 Zrotation Xrotation Yrotation
    JOINT KneeRight
    {
      OFFSET -6.795681 -40.562698 1.640544
      CHANNELS 3 Zrotation Xrotation Yrotation
      JOINT AnkleRight
      {
        OFFSET -11.135987 -34.493608 4.100779
        CHANNELS 3 Zrotation Xrotation Yrotation
        JOINT FootRight
        {
          OFFSET 7.049335 -5.658770 -5.523518
          CHANNELS 3 Zrotation Xrotation Yrotation
          End Site
          {
            OFFSET 0 0 0
          }
        }
      }
    }
  }
}
MOTION
Frames: 6
Frame Time: 0.033333
-32.873996 80.549841 303.629322 2.259207 2.796614 -40.373143 0.811864 0.239377 40.380202 0.745141 -0.148581 0.158347 -9.975174 -9.691087 4.150759 0.000000 0.000000 0.000000 -7.832716 1.227070 0.549966 -2.545005 6.385087 2.406162 3.117612 -1.554125 -2.002855 3.206421 3.088214 0.897320 0.000000 0.000000 0.000000 0.000000 0.000000 0.000000 -2.476518 0.443018 0.060425 -12.275284 -1.871256 -1.935443 -11.224681 28.144526 20.669179 -5.657084 -24.283197 -11.419543 0.000000 0.000000 0.000000 0.000000 0.000000 0.000000 3.459729 -0.398173 39.866290 -27.386677 -7.174968 -1.721660 17.728487 23.463578 12.058494 0.000000 0.000000 0.000000 8.919525 2.337868 41.059649 -2.178232 1.509533 0.202171 -29.520979 -12.705636 2.264298 0.000000 0.000000 0.000000
-30.074972 80.304650 303.717570 1.776894 2.835218 -38.361402 0.754551 0.142856 38.361493 0.790175 -0.176315 0.139950 -8.964506 -10.485804 4.253362 0.000000 0.000000 0.000000 -8.703202 -0.433318 1.124200 -3.342352 7.225264 2.072344 4.844202 -2.564390 -2.459965 1.416714 6.345555 1.268581 0.000000 0.000000 0.000000 0.000000 0.000000 0.000000 -1.457268 -0.850555 0.193453 -12.810379 1.557935 -0.966972 -8.144940 9.984907 7.437708 -4.113235 -7.793467 1.775417 0.000000 0.000000 0.000000 0.000000 0.000000 0.000000 3.640764 4.342856 36.251232 -32.598521 -12.970228 -2.698260 15.301955 25.883540 15.897823 0.000000 0.000000 0.000000 9.160395 2.312778 39.012653 -5.436960 0.864665 0.086220 -26.468725 -11.791196 4.663781 0.000000 0.000000 0.000000
-27.937480 80.290948 303.800510 1.194286 2.875694 -36.070559 0.686856 0.027433 36.062924 0.733542 -0.220800 0.108306 -7.675015 -11.320851 4.386100 0.000000 0.000000 0.000000 -9.130788 -2.199742 1.631077 -3.570154 7.975660 1.644809 8.028289 -2.910744 -1.980387 -2.344250 8.592703 0.968815 0.000000 0.000000 0.000000 0.000000 0.000000 0.000000 -0.209148 -1.640506 0.357395 -12.093893 4.453893 0.002216 -7.212568 -2.985743 -0.970302 -9.821539 2.189996 10.839105 0.000000 0.000000 0.000000 0.000000 0.000000 0.000000 4.130072 9.191294 32.289451 -35.383140 -19.285179 -3.566152 5.281722 22.686468 20.910799 0.000000 0.000000 0.000000 9.382507 2.579160 36.615667 -7.974201 -0.381549 0.143807 -21.667227 -10.268696 3.775139 0.000000 0.000000 0.000000
-26.061004 80.573154 303.825528 0.437016 2.601810 -33.745878 0.621507 -0.048769 33.735612 0.719408 -0.233523 0.074961 -6.335442 -11.750556 4.532122 0.000000 0.000000 0.000000 -9.519391 -3.916912 2.174203 -2.846064 8.827475 1.008215 10.309551 -1.940020 -1.302889 -4.211759 8.857154 0.503560 0.000000 0.000000 0.000000 0.000000 0.000000 0.000000 1.140964 -1.527018 0.516750 -10.815186 6.661222 0.789801 -8.884329 -14.551504 -8.368381 -12.384703 4.332543 13.585748 0.000000 0.000000 0.000000 0.000000 0.000000 0.000000 5.929748 14.125589 28.251413 -36.758506 -23.891745 -3.711442 -2.496612 20.208426 23.995682 0.000000 0.000000 0.000000 9.388075 3.594892 34.030501 -8.736452 -2.133749 0.415446 -20.893223 -6.510046 9.742388 0.000000 0.000000 0.000000
-24.279027 80.842208 303.498634 -0.517045 2.668911 -30.886065 0.632591 -0.121471 30.869071 0.729937 -0.260678 0.036123 -4.547582 -12.707774 4.632779 0.000000 0.000000 0.000000 -9.194828 -5.875617 2.508067 -2.846893 9.780751 0.631258 12.457079 -0.799816 -0.737099 -6.701766 6.633470 -0.426254 0.000000 0.000000 0.000000 0.000000 0.000000 0.000000 2.742557 -1.211555 0.728605 -9.612846 8.021769 1.277697 -8.658201 -8.225467 -4.098592 -13.507000 -5.271349 4.077610 0.000000 0.000000 0.000000 0.000000 0.000000 0.000000 8.829878 18.072146 23.678758 -35.894944 -27.654118 -2.758705 -10.388963 19.334734 27.188786 0.000000 0.000000 0.000000 9.990121 4.280268 30.984414 -10.401182 -3.818755 0.512174 -19.042293 -0.971809 17.892498 0.000000 0.000000 0.000000
-23.042245 81.113701 302.736238 -1.767051 2.685432 -29.002686 0.638332 -0.181714 28.977150 0.710548 -0.282328 -0.018143 -2.894438 -13.567569 4.906795 0.000000 0.000000 0.000000 -8.674555 -7.821002 2.888008 -2.453331 11.082206 0.263021 13.325781 -0.906479 -0.719760 -7.068815 4.458456 -0.811375 0.000000 0.000000 0.000000 0.000000 0.000000 0.000000 4.576371 0.017957 0.930673 -9.992067 7.833473 1.297899 -9.460880 -5.423482 -2.464210 -11.462104 -9.809584 -0.626806 0.000000 0.000000 0.000000 0.000000 0.000000 0.000000 13.235264 21.786630 19.828972 -33.244733 -29.007292 -0.355842 -12.244719 25.529355 28.624464 0.000000 0.000000 0.000000 11.910820 5.450896 28.945333 -12.623685 -5.045124 0.524267 -11.765172 13.155517 26.998070 0.000000 0.000000 0.000000
